<?xml version="1.0" encoding="UTF-8"?>
<svg xmlns="http://www.w3.org/2000/svg" xmlns:xlink="http://www.w3.org/1999/xlink" width="20px" height="20px" viewBox="0 0 20 20" version="1.1">
<g id="surface1">
<path style=" stroke:none;fill-rule:nonzero;fill:rgb(0%,0%,0%);fill-opacity:1;" d="M 6.667969 2.5 C 6.667969 1.808594 5.175781 1.25 3.332031 1.25 C 1.488281 1.25 0 1.808594 0 2.5 L 0 17.5 C 0 18.191406 1.488281 18.75 3.332031 18.75 C 5.175781 18.75 6.667969 18.191406 6.667969 17.5 Z M 20 2.5 C 20 1.808594 18.511719 1.25 16.667969 1.25 C 14.824219 1.25 13.332031 1.808594 13.332031 2.5 L 13.332031 17.5 C 13.332031 18.191406 14.824219 18.75 16.667969 18.75 C 18.511719 18.75 20 18.191406 20 17.5 Z M 20 2.5 "/>
</g>
</svg>
