<?xml version="1.0" encoding="UTF-8"?>
<svg xmlns="http://www.w3.org/2000/svg" xmlns:xlink="http://www.w3.org/1999/xlink" width="20px" height="25px" viewBox="0 0 20 25" version="1.1">
<g id="surface1">
<path style=" stroke:none;fill-rule:nonzero;fill:rgb(0%,0%,0%);fill-opacity:1;" d="M 19.414062 7.351562 C 20.195312 6.742188 20.195312 5.75 19.414062 5.140625 C 18.632812 4.53125 17.363281 4.53125 16.582031 5.140625 L 10 10.289062 L 3.414062 5.148438 C 2.632812 4.535156 1.363281 4.535156 0.582031 5.148438 C -0.199219 5.757812 -0.199219 6.75 0.582031 7.359375 L 7.167969 12.5 L 0.585938 17.648438 C -0.195312 18.257812 -0.195312 19.25 0.585938 19.859375 C 1.367188 20.46875 2.636719 20.46875 3.417969 19.859375 L 10 14.710938 L 16.585938 19.851562 C 17.367188 20.464844 18.636719 20.464844 19.417969 19.851562 C 20.199219 19.242188 20.199219 18.25 19.417969 17.640625 L 12.832031 12.5 Z M 19.414062 7.351562 "/>
</g>
</svg>
